<?xml version="1.0" encoding="UTF-8"?>
<!DOCTYPE svg PUBLIC "-//W3C//DTD SVG 1.1//EN" "http://www.w3.org/Graphics/SVG/1.1/DTD/svg11.dtd">
<!-- Creator: CorelDRAW X7 -->
<svg xmlns="http://www.w3.org/2000/svg" xml:space="preserve" width="1000px" height="600px" version="1.1" shape-rendering="geometricPrecision" text-rendering="geometricPrecision" image-rendering="optimizeQuality" fill-rule="evenodd" clip-rule="evenodd"
viewBox="0 0 1000 600"
 xmlns:xlink="http://www.w3.org/1999/xlink">
 <g id="Layer_x0020_1">
  <metadata id="CorelCorpID_0Corel-Layer"/>
  <rect fill="black" width="1000" height="600"/>
  <g id="_1976836951472">
   <path fill="#4D4D4D" d="M879 171l-59 0 0 120 -13 27 0 -73 -23 0 0 73 -13 -27 0 -180 49 0 0 18 85 0 -26 42zm-96 -75l133 0 0 -41 -166 0 33 41zm-204 147l49 0 0 -132 -49 0 0 132zm8 -147l96 0 9 10 0 26 -9 9 -7 0 -28 0 0 42 44 60 59 0 -45 -61 35 -30 0 -56 0 -9 -34 -32 -152 0 32 41zm-84 75l-65 0 0 31 107 0 0 41 -156 0 0 -20 0 -21 0 -91 49 0 0 19 99 0 -34 41zm-104 -75l146 0 0 -31 -7 -10 -159 0 0 15 20 26zm-215 147l50 0 0 -36 27 -32 54 68 63 0 -84 -105 71 -83 -62 0 -69 91 0 -91 -56 0 6 9 0 179z"/>
   <path fill="#999999" d="M877 167l20 -34 -81 0 0 -18 -41 0 0 175 5 10 0 -59 31 0 0 59 5 -10 0 -123 61 0zm-92 -75l127 0 0 -33 -154 0 27 33zm-202 147l41 0 0 -124 -41 0 0 124zm6 -147l96 0 11 13 0 29 -12 11 -32 0 0 37 42 57 49 0 -43 -58 37 -31 0 -61 -32 -30 -142 0 26 33zm-88 75l28 -33 -95 0 0 -19 -41 0 0 124 148 0 0 -33 -107 0 0 -39 67 0zm-100 -75l140 0 0 -26 -5 -7 -153 0 0 10 18 23zm-212 147l40 0 0 -33 32 -37 56 70 52 0 -81 -102 68 -78 -51 0 -76 99 0 -99 -43 0 3 4 0 176z"/>
   <path fill="#FF6600" d="M129 408l8 -10 78 0 26 -41 -127 0 -34 36 0 1 0 4 0 60 13 14 105 0 0 22 -8 10 -111 0 23 41 112 0 34 -36 0 -2 0 -62 -15 -15 -104 0 0 -22zm680 0l8 -10 79 0 25 -42 -127 0 -34 36 0 2 0 4 0 106 0 3 0 2 34 36 99 0 23 -41 -99 0 -8 -10 0 -22 63 0 0 -28 -15 -14 -48 0 0 -22zm-442 137l9 0 7 0 34 -36 0 -140 10 -13 -60 0 0 141 -7 7 -38 0 -8 -7 0 -141 -49 0 0 153 34 36 4 0 11 0 53 0zm274 0l50 0 0 -147 37 0 26 -42 -63 0 0 0 -50 0 0 0 -20 0 -19 23 0 19 39 0 0 147zm-92 0l18 -23 0 -18 -39 0 0 -106 38 0 26 -42 -134 0 -18 23 0 19 39 0 0 106 -37 0 -27 41 134 0z"/>
   <path fill="#FF9933" d="M214 395l22 -35 -121 0 -32 34 0 63 11 12 107 0 0 26 -9 12 -108 0 20 35 108 0 33 -34 0 -62 -13 -13 -106 0 0 -26 10 -12 78 0zm680 0l22 -36 -121 0 -32 35 0 114 32 34 96 0 20 -35 -95 0 -10 -12 0 -26 63 0 0 -24 -13 -12 -50 0 0 -26 10 -12 78 0zm-513 147l33 -34 0 -140 7 -9 -51 0 0 139 -9 9 -41 0 -9 -9 0 -139 -43 0 0 149 32 34 81 0zm263 0l44 0 0 -147 38 0 23 -36 -127 0 -17 21 0 15 39 0 0 147zm-96 0l16 -21 0 -14 -39 0 0 -112 39 0 23 -36 -127 0 -17 21 0 15 39 0 0 112 -38 0 -23 35 127 0z"/>
   <path fill="#FF6600" d="M796 435c-4,-58 -3,-121 0,-187 3,66 3,129 0,187z"/>
  </g>
 </g>
</svg>
