<?xml version="1.0" encoding="UTF-8"?>
<!DOCTYPE svg PUBLIC "-//W3C//DTD SVG 1.1//EN" "http://www.w3.org/Graphics/SVG/1.1/DTD/svg11.dtd">
<!-- Creator: CorelDRAW X7 -->
<svg xmlns="http://www.w3.org/2000/svg" xml:space="preserve" width="1000px" height="700px" version="1.1" shape-rendering="geometricPrecision" text-rendering="geometricPrecision" image-rendering="optimizeQuality" fill-rule="evenodd" clip-rule="evenodd"
viewBox="0 0 1000 700"
 xmlns:xlink="http://www.w3.org/1999/xlink">
 <g id="Layer_x0020_1">
  <metadata id="CorelCorpID_0Corel-Layer"/>
  <rect fill="black" width="1000" height="700"/>
  <g id="_1976649283376">
   <path fill="#FF6600" d="M879 417l36 0 0 -108 27 0 20 -31 -47 0 0 0 -36 0 0 0 -15 0 -13 17 0 14 28 0 0 108zm-75 0l7 0 4 0 25 -27 0 -102 8 -10 -44 0 0 103 -5 5 -28 0 -6 -5 0 -103 -36 0 0 112 25 27 3 0 8 0 39 0zm-165 -101l6 -7 57 0 19 -31 -93 0 -25 27 0 1 0 3 0 77 0 3 0 1 25 27 72 0 17 -31 -72 0 -6 -7 0 -63z"/>
   <polygon fill="#FF9933" stroke="#FF6633" stroke-width="0.900001" points="701,306 716,281 629,281 606,306 606,389 629,414 698,414 712,389 644,389 636,380 636,315 644,306 "/>
   <polygon fill="#FF9933" stroke="#FF6633" stroke-width="0.900001" points="814,414 837,389 837,286 842,281 807,281 807,383 800,389 770,389 762,383 762,281 732,281 732,389 756,414 "/>
   <polygon fill="#FF9933" stroke="#FF6633" stroke-width="0.900001" points="882,414 912,414 912,306 941,306 956,281 865,281 854,296 854,306 882,306 "/>
   <path fill="#4D4D4D" d="M464 627c-12,-1 -23,-3 -34,-6l-27 27 0 0c-2,0 -5,-1 -7,-2l0 0 -1 0 0 0c-2,-1 -3,-2 -5,-2 -1,-1 -2,-1 -3,-1 -1,-1 -2,-1 -4,-2 -1,0 -2,-1 -4,-1 -1,-1 -1,-1 -2,-2 -2,0 -4,-1 -5,-2l-2 0c-2,-1 -3,-2 -5,-3l-2 -1 25 -25c-10,-5 -20,-10 -30,-16l-34 19c-1,-1 -3,-3 -5,-4l-1 0c-2,-2 -3,-3 -5,-4l-1 -1c-2,-1 -3,-2 -5,-4l-1 -1c-2,-1 -3,-2 -4,-3 -1,-1 -2,-1 -3,-2 -1,-1 -2,-2 -3,-3 -1,-1 -2,-1 -3,-2 -1,-1 -2,-2 -3,-3l0 0 32 -18c-9,-7 -18,-15 -25,-23l-38 9c-1,-1 -1,-2 -2,-3 -1,-1 -2,-2 -2,-3 -1,-1 -2,-2 -3,-3 -1,-1 -1,-2 -2,-3 -1,-1 -2,-2 -3,-3 0,-1 -1,-2 -1,-2 -1,-2 -2,-3 -3,-5l0 0 -1 0 0 -1 -1 -1c-1,-1 -2,-3 -3,-4l0 -1 0 0c-2,-2 -3,-4 -4,-6l0 0 35 -8c-7,-10 -12,-20 -18,-30l0 0 58 0c39,58 105,98 180,101l0 84c-1,0 -2,0 -3,0 -1,0 -3,0 -4,0 -1,0 -3,0 -4,0 -1,0 -3,0 -4,0 -2,-1 -3,-1 -4,-1 -1,0 -3,0 -4,0 -1,0 -2,0 -3,-1 -2,0 -4,0 -5,0 -1,0 -2,-1 -3,-1 -2,0 -4,0 -5,0 -1,-1 -2,-1 -3,-1l0 0 17 -32zm-213 -149l0 0 0 0 0 0zm257 102c76,-3 143,-43 183,-102l75 0 12 17 0 0c0,1 -1,2 -1,3 -1,1 -1,2 -2,3 -1,1 -1,3 -2,4 -1,1 -1,1 -2,2 0,2 -1,3 -2,5l-1 1c-1,2 -2,4 -3,6l-1 1c-1,1 -3,3 -4,5l0 1c-1,2 -3,3 -4,5l-21 -28c-7,9 -14,18 -21,27l13 36 0 1c-2,1 -3,3 -5,4l-1 1c-1,2 -3,3 -4,4l-1 2c-2,1 -3,2 -4,3 -1,1 -2,1 -2,2 -1,1 -2,2 -3,3 -1,1 -2,2 -3,2 -1,1 -2,2 -3,3 -1,1 -2,2 -3,3 -1,0 -2,1 -2,1l0 0 -13 -33c-9,7 -18,14 -27,20l3 39 0 0c-2,1 -4,1 -5,2l-2 1c-2,1 -3,2 -5,3l-2 1c-1,1 -3,2 -4,2l-1 1 -1 0c-2,1 -4,2 -6,3l0 0 0 0 -1 1c-2,0 -4,1 -5,2l-1 0 -1 1 -1 0c-1,1 -3,1 -4,2l-3 -36c-10,5 -21,9 -32,13l-8 37c-2,0 -3,1 -5,1l-2 1c-2,0 -4,1 -5,1 -1,0 -2,0 -3,1 -2,0 -3,0 -5,0 -1,1 -2,1 -4,1 -1,0 -2,0 -3,1 -2,0 -3,0 -5,0l-2 1c-2,0 -4,0 -6,0l-2 1 7 -35c-11,1 -22,2 -34,3l0 0 0 -50zm-293 -360c0,-2 1,-3 2,-5l1 -2c1,-2 1,-3 2,-5l1 -2c1,-1 2,-3 3,-4l1 -2c1,-2 2,-4 2,-5l2 -2c0,-2 1,-3 2,-5l1 -2c1,-1 2,-3 3,-4l23 28c6,-10 12,-20 19,-29l-15 -35 0 0c1,-1 1,-2 2,-2 1,-2 2,-3 3,-4 1,-1 1,-1 2,-2 1,-1 2,-2 3,-3 1,-1 2,-2 2,-3 1,-1 2,-1 3,-2 1,-1 2,-2 3,-4l2 -1c1,-1 2,-3 4,-4l0 0 1 -1 0 0c1,-1 3,-3 4,-4l1 0 0 -1 14 33c9,-8 17,-15 27,-22l-5 -38 0 0 0 -1c2,-1 4,-2 5,-3l2 -1 0 0c2,-1 3,-2 5,-3l2 -1c1,-1 2,-1 4,-2 1,-1 2,-1 3,-2 1,0 2,-1 3,-2 1,0 2,-1 4,-1 1,-1 2,-2 3,-2 1,-1 2,-1 4,-2 0,0 1,-1 2,-1l0 0 5 35c10,-5 21,-10 31,-14l6 -38c2,0 4,-1 6,-2l2 0c2,0 4,-1 6,-2l2 0c1,0 3,-1 5,-1 1,0 2,-1 3,-1 1,0 2,-1 4,-1 1,0 3,0 4,-1l2 0 1 0c2,-1 4,-1 5,-1l1 0 1 -1 0 0 -5 36c15,-3 31,-5 48,-6l0 15 0 35 0 145 -12 -15 0 -129c-70,6 -131,44 -169,99l-96 0zm474 0c-38,-55 -99,-93 -169,-99l0 129 -12 15 0 -145 0 -35 0 -44 1 -5c20,1 40,4 60,8l-19 31c12,2 23,5 34,8l28 -26 0 0c2,1 4,2 6,2l0 0 1 1 0 0c2,1 4,1 6,2l1 1 1 0c1,1 3,1 4,2 1,1 2,1 3,1 1,1 2,2 4,2 1,1 2,1 3,2 1,0 2,1 3,1 2,1 3,2 4,2 1,1 2,1 3,2l-26 25c10,5 20,10 29,17l35 -18c1,1 2,3 4,4l1 1c2,1 3,2 5,3l1 2c2,1 3,2 4,3l2 1c1,2 3,3 4,4l2 2c1,1 2,2 4,3l1 2c1,1 3,2 4,4l0 0 -32 16c9,8 17,16 24,25l38 -8 0 1 1 1c1,2 2,3 3,5 1,0 1,1 2,2 0,1 1,2 2,3 1,1 1,2 2,3 1,1 1,2 2,3 1,2 2,3 2,4 1,1 1,2 2,2 1,2 2,3 3,5l1 1c1,2 2,4 3,5l0 1 0 0 0 1 -35 6c3,5 6,10 9,16l-59 0z"/>
   <path fill="#999999" d="M452 657c1,0 2,0 3,0 1,1 2,1 3,1 2,0 3,0 5,0 1,1 2,1 3,1 1,0 3,0 5,0 1,0 2,0 3,1 1,0 3,0 4,0 2,0 3,0 4,0 1,0 2,0 4,0l0 -78c-72,-4 -138,-42 -179,-101l-51 0c5,8 10,17 15,25l3 3 -35 9c0,1 1,1 1,2l1 1c1,2 2,3 3,5l1 2c1,1 2,2 3,4 1,1 1,1 2,2 1,1 1,2 2,4 1,0 2,1 2,2 1,1 2,2 3,3 1,1 1,2 2,3 0,1 1,1 1,2l38 -9 1 1c8,8 16,16 25,23l3 3 -31 18c0,1 1,1 2,2 1,1 2,2 3,3 1,0 2,1 2,2 2,1 3,2 4,3l2 1c2,1 3,2 5,4l1 0c1,2 3,3 5,4l0 1c2,0 3,1 5,2l33 -19 1 1c10,6 20,11 31,16l3 2 -25 25c1,1 2,1 3,2l2 1c2,0 3,1 5,2 1,0 2,0 2,1 2,0 3,1 5,1 1,1 2,1 3,2 1,0 2,1 3,1 2,1 3,1 5,2l1 0c2,1 4,1 6,2l26 -27 2 0c11,3 22,5 33,6l5 1 -17 32zm59 -75l0 45c10,-1 20,-2 31,-3l4 -1 -7 35c1,0 2,0 3,0l3 -1c1,0 3,0 5,0 1,-1 2,-1 3,-1 1,0 3,0 4,-1 1,0 3,0 4,0 1,-1 2,-1 3,-1 2,0 3,-1 5,-1l2 -1c1,0 3,0 4,0l8 -38 1 0c11,-4 22,-8 32,-13l4 -1 3 36c0,-1 0,-1 0,-1l3 -1c1,-1 3,-1 5,-2l1 -1c2,-1 4,-1 5,-2l2 -1c2,-1 3,-2 5,-3l2 -1c1,0 3,-1 4,-2l2 -1c1,-1 2,-1 3,-2l-2 -38 1 -1c9,-6 19,-13 27,-21l3 -3 13 34c1,0 1,-1 2,-2 1,0 2,-1 3,-2 1,-1 2,-1 3,-2 1,-1 2,-2 3,-3 0,-1 1,-1 2,-2 1,-1 2,-2 4,-3l1 -2c1,-1 3,-3 4,-4l1 -1c1,-1 3,-2 4,-4l-13 -36 1 -1c7,-9 14,-18 20,-27l2 -4 22 29c0,-1 1,-1 1,-2l1 0c1,-2 2,-4 3,-6l1 -1c1,-2 2,-3 3,-5l1 -2c1,-1 2,-3 3,-4 0,-1 1,-2 1,-3 1,-1 2,-2 2,-3 1,-1 1,-3 2,-4 0,0 1,-1 1,-1l-11 -14 -71 0c-42,60 -109,98 -182,101zm-292 -365l90 0c40,-57 102,-93 171,-99l3 0 0 131 6 8 0 -184c-15,1 -30,3 -45,6l-4 1 6 -36c-1,0 -2,0 -3,1l-3 0c-2,1 -3,1 -5,1 -1,0 -2,1 -4,1 -1,0 -2,0 -3,1 -1,0 -3,0 -5,1l-2 0c-1,1 -3,1 -5,2l-2 0c-1,1 -3,1 -4,2l-6 37 -2 1c-10,4 -21,9 -31,14l-3 2 -5 -36c-1,1 -2,1 -3,2 -1,0 -2,1 -3,1 -1,1 -2,1 -3,2 -2,1 -3,1 -4,2 -1,0 -2,1 -3,1 -1,1 -2,2 -4,3l-2 1c-1,1 -3,2 -4,3l-2 1c-1,1 -3,1 -4,2l5 38 -2 1c-9,7 -17,14 -26,22l-3 3 -14 -33c-1,1 -1,2 -2,2l-1 1c-2,1 -3,3 -4,4l-2 2c-1,1 -2,2 -3,3 -1,1 -2,1 -2,2 -1,1 -2,2 -3,3 -1,1 -2,2 -3,3 -1,1 -1,1 -2,2 -1,1 -2,2 -3,4 0,0 0,0 -1,0l15 35 -1 2c-6,9 -13,18 -18,28l-3 4 -22 -28c-1,0 -1,1 -1,1l-1 2c-1,1 -2,3 -3,4l-1 2c-1,2 -2,3 -3,5l-1 2c-1,1 -1,3 -2,5l-1 2c-1,1 -2,3 -2,4l-1 2c-1,0 -1,1 -1,1zm472 0l51 0c-1,-4 -4,-8 -6,-11l-2 -4 36 -6c-1,-1 -1,-2 -2,-3l-1 -2c-1,-1 -2,-3 -3,-4 0,-1 -1,-2 -1,-3 -1,-1 -2,-2 -2,-3 -1,-1 -2,-2 -3,-3 0,-1 -1,-2 -1,-3 -1,-1 -2,-2 -3,-4 0,0 -1,-1 -1,-2 -1,-1 -2,-3 -3,-4l-1 0 -37 7 -1 -1c-8,-9 -16,-17 -24,-25l-3 -3 32 -16c0,0 -1,-1 -1,-1l-1 -1c-2,-2 -3,-3 -4,-4l-2 -2c-1,-1 -3,-2 -4,-3l-1 -2c-2,-1 -3,-2 -5,-3l-1 -1c-2,-1 -3,-3 -4,-4l-2 -1c-1,-1 -2,-1 -3,-2l-34 17 -1 -1c-10,-6 -20,-12 -30,-17l-4 -2 27 -24c-1,-1 -2,-1 -3,-2 -1,0 -2,-1 -3,-1 -1,-1 -2,-2 -4,-2 -1,-1 -2,-1 -3,-2 -1,0 -2,-1 -3,-1 -1,-1 -3,-2 -4,-2l-3 -1c-1,-1 -3,-2 -5,-2l-1 -1c-2,0 -3,-1 -5,-2l-28 26 -1 0c-11,-4 -22,-6 -33,-8l-5 -1 19 -31c-17,-4 -35,-6 -53,-6l0 1 0 216 6 -8 0 -131 3 0c69,6 131,42 171,99z"/>
   <path fill="#4D4D4D" d="M407 443l-360 0 0 23 383 0 -23 -23zm546 0l-396 0 0 23 396 0 0 -23zm-360 -211l360 0 0 23 -383 0 23 -23zm-546 0l396 0 0 23 -396 0 0 -23z"/>
   <path fill="#999999" d="M406 446l-356 0 0 17 373 0 -17 -17zm544 0l-390 0 0 17 390 0 0 -17zm-356 -211l-17 17 373 0 0 -17 -356 0zm-544 0l0 17 390 0 0 -17 -390 0z"/>
   <path fill="#FF6600" d="M498 683c-2,-82 -2,-171 0,-263 2,92 3,181 0,263z"/>
   <path fill="#4D4D4D" d="M559 364l-43 0 0 88 -9 20 0 -54 -17 0 0 54 -10 -20 0 -132 36 0 0 13 62 0 -19 31zm-70 -55l98 0 0 -31 -122 0 24 31zm-149 108l35 0 0 -97 -35 0 0 97zm6 -108l70 0 6 7 0 19 -6 7 -5 0 -21 0 0 30 32 45 44 0 -34 -46 26 -21 0 -41 0 -7 -25 -24 -111 0 24 31zm-62 55l-48 0 0 22 79 0 0 31 -115 0 0 -15 0 -16 0 -66 36 0 0 13 73 0 -25 31zm-76 -55l107 0 0 -23 -6 -8 -116 0 0 12 15 19zm-157 108l36 0 0 -27 20 -23 39 50 46 0 -61 -78 52 -61 -46 0 -50 67 0 -67 -41 0 5 8 0 131z"/>
   <path fill="#999999" d="M558 361l15 -25 -60 0 0 -13 -30 0 0 128 4 7 0 -43 23 0 0 43 3 -7 0 -90 45 0zm-68 -55l94 0 0 -25 -113 0 19 25zm-147 108l29 0 0 -91 -29 0 0 91zm4 -108l70 0 8 9 0 21 -8 9 -24 0 0 26 31 43 36 0 -32 -43 27 -22 0 -46 -23 -22 -104 0 19 25zm-65 55l21 -25 -70 0 0 -13 -30 0 0 91 109 0 0 -25 -79 0 0 -28 49 0zm-73 -55l103 0 0 -19 -4 -6 -112 0 0 8 13 17zm-155 108l30 0 0 -25 23 -27 41 52 38 0 -59 -75 49 -58 -37 0 -55 73 0 -73 -32 0 2 4 0 129z"/>
  </g>
 </g>
</svg>
